<svg xmlns="http://www.w3.org/2000/svg" viewBox="0 0 512 230" width="32px" height="32px" id="h97abaza-logo" role="img" xmlns:bx="https://boxy-svg.com">
  <desc>Hussein Abaza Logo</desc>
  <bx:title>HA</bx:title>
  <g transform="matrix(1.159331, 0, 0, 1.159331, -35.182949, -156.069183)" style="transform-origin: 35.183px 156.069px;">
    <bx:title>Logo</bx:title>
    <path d="M 300.478 172.893 L 264.936 189.129 L 241.04 324.139 L 258.963 337.444 L 134.912 341.961 L 157.637 326.702 L 171.004 281.414 L 135.15 286.663 L 121.819 340.13 L 137.116 352.215 L 35.183 344.891 L 55.133 332.928 L 106.06 185.955 L 79.442 177.166 L 174.008 164.104 L 151.832 179.607 L 143.6 236.614 L 172.508 248.455 L 196.726 184.124 L 184.906 169.353 L 300.478 172.893 Z" fill="rgb(236, 236, 0)"></path>
    <path d="M 373.555 246.844 L 356.587 198.138 L 340.108 258.197 L 373.555 246.844 Z M 472.066 316.913 L 365.62 349.872 L 392.842 313.373 L 385.152 286.395 L 345.601 289.447 L 334.126 320.941 L 351.338 334.369 L 235.616 342.67 L 263.814 321.673 L 301.289 175.922 L 280.049 162.128 L 423.604 166.888 L 390.157 178.851 L 448.872 309.955 L 472.066 316.913 Z" fill="rgb(0, 236, 0)"></path>
  </g>
</svg>